<svg xmlns="http://www.w3.org/2000/svg" viewBox="-123.87812500000001 -19.25312500000001 2928.0375 853.13125" width="100%" height="100%">
  <defs>
    <linearGradient id="flow" x1="0%" y1="100%" x2="100%" y2="0%">
      <stop offset="0%" stop-color="#2563EB" />
      <stop offset="50%" stop-color="#38BDF8" />
      <stop offset="100%" stop-color="#5EEAD4" />
    </linearGradient>
  </defs>
  <g transform="translate(100, 150) scale(0.575)">
    <path d="M 100 700 L 280 340 L 430 540 L 580 340 L 730 540 L 880 340" fill="none" stroke="#0F172A" stroke-width="130" stroke-linecap="round" stroke-linejoin="round" />
    <circle cx="950" cy="200" r="70" fill="#0F172A" />
  </g>
  <path d="M831.81 490.44L776.50 490.44L776.50 257.63L862.44 257.63L892.13 348.25Q894.63 356.53 897.83 370.20Q901.03 383.88 904.31 399.50Q907.13 412.94 909.63 425.59Q911.97 413.09 914.78 399.50Q917.91 383.88 921.11 370.28Q924.31 356.69 926.81 348.25L956.03 257.63L1042.13 257.63L1042.13 490.44L986.66 490.44L986.66 390.13Q986.66 382.31 986.97 370.05Q987.28 357.78 987.67 343.41Q988.06 329.03 988.53 314.34Q988.69 308.56 988.69 303.09Q987.28 309.34 985.72 315.91Q981.97 330.75 978.30 344.81Q974.63 358.88 971.27 370.59Q967.91 382.31 965.56 390.13L932.44 490.44L886.34 490.44L852.75 390.13Q850.41 382.47 846.97 370.75Q843.53 359.03 839.78 344.97Q836.03 330.91 832.28 316.06Q831.03 310.91 829.78 305.91Q829.78 309.97 829.94 314.03Q830.25 328.56 830.64 343.09Q831.03 357.63 831.42 369.89Q831.81 382.16 831.81 390.13L831.81 490.44M1069.75 551.69L1081.94 511.84L1088.81 513.72Q1098.66 516.22 1106.08 515.13Q1113.50 514.03 1117.48 509.66Q1121.47 505.28 1121 498.09L1120.84 490.75L1055.69 315.75L1113.19 315.75L1139.28 401.22Q1144.59 418.72 1147.72 436.38Q1148.50 441.69 1149.59 447.16Q1150.84 441.53 1152.09 436.22Q1156.31 418.41 1161.78 401.22L1189.75 315.75L1246.63 315.75L1173.34 508.88Q1168.03 522.94 1159.44 533.80Q1150.84 544.66 1137.48 550.83Q1124.13 557 1104.44 557Q1094.44 557 1085.14 555.52Q1075.84 554.03 1069.75 551.69M1315.34 490.44L1260.19 490.44L1260.19 257.63L1418.47 257.63L1418.47 302.63L1315.34 302.63L1315.34 361.69L1408.31 361.69L1408.31 405.75L1315.34 405.75L1315.34 490.44M1439.38 257.63L1493.91 257.63L1493.91 490.44L1439.38 490.44L1439.38 257.63M1603.09 493.72Q1575.75 493.72 1556.06 482.39Q1536.38 471.06 1525.83 450.83Q1515.28 430.59 1515.28 403.72Q1515.28 376.69 1525.83 356.45Q1536.38 336.22 1556.06 324.89Q1575.75 313.56 1603.09 313.56Q1630.44 313.56 1650.13 324.89Q1669.81 336.22 1680.28 356.45Q1690.75 376.69 1690.75 403.72Q1690.75 430.59 1680.28 450.83Q1669.81 471.06 1650.13 482.39Q1630.44 493.72 1603.09 493.72M1603.09 452Q1613.56 452 1620.75 445.91Q1627.94 439.81 1631.61 428.88Q1635.28 417.94 1635.28 403.41Q1635.28 388.88 1631.61 378.02Q1627.94 367.16 1620.75 361.22Q1613.56 355.28 1603.09 355.28Q1592.63 355.28 1585.44 361.22Q1578.25 367.16 1574.58 378.02Q1570.91 388.88 1570.91 403.41Q1570.91 417.94 1574.58 428.88Q1578.25 439.81 1585.44 445.91Q1592.63 452 1603.09 452M1803.06 490.44L1747.44 490.44L1696.50 315.75L1753.53 315.75L1766.34 375.59Q1769.94 393.56 1774.31 414.19Q1777.13 427.47 1779.47 442.16Q1782.13 427.47 1785.25 414.34Q1790.09 393.72 1794.16 375.59L1808.06 315.75L1856.50 315.75L1869.94 375.59Q1873.84 393.72 1878.69 414.34Q1881.81 427.63 1884.63 442.63Q1886.81 427.78 1889.47 414.50Q1893.53 393.88 1897.28 375.59L1909.94 315.75L1967.91 315.75L1916.50 490.44L1860.88 490.44L1842.75 427.78Q1840.25 418.56 1837.59 406.38Q1834.94 394.19 1832.44 381.53Q1832.28 380.59 1831.97 379.50Q1831.81 380.59 1831.66 381.53Q1829 394.19 1826.42 406.45Q1823.84 418.72 1821.19 427.78L1803.06 490.44M2066 490.44L1980.38 490.44L1980.38 257.63L2066 257.63Q2101.47 257.63 2127.09 271.61Q2152.72 285.59 2166.63 311.69Q2180.53 337.78 2180.53 374.03Q2180.53 410.28 2166.70 436.45Q2152.88 462.63 2127.17 476.53Q2101.47 490.44 2066 490.44M2035.53 304.81L2035.53 443.25L2063.66 443.25Q2083.66 443.25 2097.48 436.53Q2111.31 429.81 2118.34 414.50Q2125.38 399.19 2125.38 374.03Q2125.38 348.88 2118.19 333.64Q2111 318.41 2097.17 311.61Q2083.34 304.81 2062.88 304.81L2035.53 304.81M2252.38 493.56Q2235.66 493.56 2222.61 487.86Q2209.56 482.16 2202.22 470.67Q2194.88 459.19 2194.88 442Q2194.88 427.47 2199.95 417.47Q2205.03 407.47 2214.09 401.22Q2223.16 394.97 2234.88 391.69Q2246.59 388.41 2259.88 387.31Q2274.72 386.06 2283.78 384.58Q2292.84 383.09 2297.06 380.13Q2301.28 377.16 2301.28 371.84L2301.28 371.22Q2301.28 365.13 2298.47 360.91Q2295.66 356.69 2290.34 354.50Q2285.03 352.31 2277.53 352.31Q2270.03 352.31 2264.17 354.50Q2258.31 356.69 2254.56 360.75Q2250.81 364.81 2249.25 370.28L2199.88 363.88Q2203.31 348.88 2213.39 337.55Q2223.47 326.22 2239.80 319.89Q2256.13 313.56 2278 313.56Q2294.25 313.56 2308.39 317.39Q2322.53 321.22 2333.16 328.64Q2343.78 336.06 2349.72 346.92Q2355.66 357.78 2355.66 371.84L2355.66 490.44L2304.41 490.44L2304.41 465.91L2303 465.91Q2298.31 474.97 2291.05 481.06Q2283.78 487.16 2274.17 490.36Q2264.56 493.56 2252.38 493.56M2268.94 457.47Q2278.16 457.47 2285.58 453.72Q2293 449.97 2297.38 443.41Q2301.75 436.84 2301.75 428.25L2301.75 411.53Q2299.41 412.78 2295.89 413.88Q2292.38 414.97 2288.16 415.83Q2283.94 416.69 2279.72 417.39Q2275.50 418.09 2271.59 418.72Q2263.63 419.81 2258 422.47Q2252.38 425.13 2249.41 429.34Q2246.44 433.56 2246.44 439.50Q2246.44 445.28 2249.41 449.27Q2252.38 453.25 2257.38 455.36Q2262.38 457.47 2268.94 457.47M2383.28 551.69L2395.47 511.84L2402.34 513.72Q2412.19 516.22 2419.61 515.13Q2427.03 514.03 2431.02 509.66Q2435 505.28 2434.53 498.09L2434.38 490.75L2369.22 315.75L2426.72 315.75L2452.81 401.22Q2458.13 418.72 2461.25 436.38Q2462.03 441.69 2463.13 447.16Q2464.38 441.53 2465.63 436.22Q2469.84 418.41 2475.31 401.22L2503.28 315.75L2560.16 315.75L2486.88 508.88Q2481.56 522.94 2472.97 533.80Q2464.38 544.66 2451.02 550.83Q2437.66 557 2417.97 557Q2407.97 557 2398.67 555.52Q2389.38 554.03 2383.28 551.69" fill="#0F172A" />
</svg>